<?xml version="1.0" encoding="UTF-8" standalone="no"?>
<!DOCTYPE svg PUBLIC "-//W3C//DTD SVG 1.1//EN" "http://www.w3.org/Graphics/SVG/1.1/DTD/svg11.dtd">
<svg width="100%" height="100%" viewBox="0 0 280 196" version="1.1" xmlns="http://www.w3.org/2000/svg" xmlns:xlink="http://www.w3.org/1999/xlink" xml:space="preserve" xmlns:serif="http://www.serif.com/" style="fill-rule:evenodd;clip-rule:evenodd;stroke-linejoin:round;stroke-miterlimit:2;">
    <g transform="matrix(1,0,0,1,-94.272,-634.606)">
        <g transform="matrix(62.5,0,0,62.5,114,705)">
            <path d="M1.192,0.077C1.136,-0.06 1.125,-0.099 1.114,-0.256C1.105,-0.379 1.101,-0.521 1.122,-0.666C1.126,-0.695 1.109,-0.706 1.053,-0.706C0.984,-0.706 0.893,-0.691 0.817,-0.691C0.753,-0.691 0.727,-0.699 0.704,-0.731C0.688,-0.752 0.683,-0.757 0.676,-0.757C0.669,-0.757 0.667,-0.749 0.667,-0.738C0.667,-0.72 0.669,-0.704 0.672,-0.683C0.684,-0.592 0.695,-0.552 0.744,-0.552C0.755,-0.552 0.773,-0.552 0.794,-0.555C0.758,-0.501 0.697,-0.384 0.648,-0.282C0.593,-0.432 0.504,-0.65 0.466,-0.688C0.454,-0.701 0.437,-0.707 0.417,-0.706C0.381,-0.707 0.247,-0.69 0.18,-0.689C0.131,-0.69 0.1,-0.698 0.08,-0.716C0.054,-0.738 0.038,-0.75 0.029,-0.75C0.022,-0.75 0.02,-0.745 0.02,-0.732C0.02,-0.717 0.024,-0.69 0.031,-0.651C0.045,-0.567 0.056,-0.521 0.124,-0.521C0.146,-0.521 0.166,-0.527 0.188,-0.545C0.193,-0.382 0.179,-0.192 0.17,-0.105C0.165,-0.049 0.179,-0.037 0.216,-0.028C0.282,-0.013 0.324,0.016 0.367,0.074C0.38,0.093 0.398,0.083 0.389,0.052C0.372,-0.006 0.367,-0.034 0.36,-0.075C0.341,-0.189 0.34,-0.34 0.35,-0.508C0.398,-0.4 0.463,-0.222 0.516,-0.075C0.52,-0.063 0.53,-0.059 0.559,-0.059C0.573,-0.059 0.587,-0.059 0.599,-0.059C0.612,-0.054 0.631,-0.052 0.662,-0.052C0.705,-0.052 0.74,-0.058 0.771,-0.15C0.801,-0.238 0.867,-0.378 0.93,-0.505C0.927,-0.39 0.925,-0.33 0.92,-0.263C0.915,-0.193 0.914,-0.122 0.917,-0.068C0.917,-0.038 0.929,-0.031 0.972,-0.023C1.06,-0.006 1.119,0.028 1.172,0.09C1.192,0.114 1.204,0.102 1.192,0.077Z" style="fill-rule:nonzero;"/>
        </g>
        <g transform="matrix(62.5,0,0,62.5,192.979,705)">
            <path d="M0.952,0.02C0.924,-0.03 0.891,-0.103 0.863,-0.162C0.83,-0.232 0.743,-0.404 0.63,-0.634C0.602,-0.689 0.569,-0.714 0.495,-0.716C0.439,-0.717 0.378,-0.708 0.319,-0.697C0.267,-0.688 0.228,-0.683 0.192,-0.683C0.08,-0.683 0.068,-0.753 0.044,-0.753C0.038,-0.753 0.034,-0.745 0.034,-0.727C0.034,-0.699 0.042,-0.637 0.048,-0.61C0.065,-0.545 0.095,-0.517 0.152,-0.517C0.182,-0.517 0.22,-0.525 0.267,-0.541C0.141,-0.417 0.066,-0.249 0.066,-0.12C0.066,-0.074 0.076,-0.03 0.118,-0.017C0.198,0.005 0.267,0.038 0.322,0.077C0.344,0.092 0.358,0.082 0.341,0.057C0.294,-0.01 0.273,-0.06 0.265,-0.115C0.34,-0.124 0.431,-0.127 0.651,-0.13C0.654,-0.116 0.656,-0.104 0.657,-0.093C0.662,-0.045 0.681,-0.028 0.717,-0.027C0.794,-0.024 0.866,0.003 0.922,0.04C0.946,0.055 0.964,0.042 0.952,0.02ZM0.286,-0.261C0.321,-0.351 0.388,-0.478 0.448,-0.563C0.506,-0.482 0.565,-0.368 0.605,-0.268C0.5,-0.282 0.379,-0.279 0.286,-0.261Z" style="fill-rule:nonzero;"/>
        </g>
        <g transform="matrix(62.5,0,0,62.5,248.125,705)">
            <path d="M0.726,-0.596C0.712,-0.693 0.667,-0.714 0.458,-0.714C0.254,-0.714 0.103,-0.684 0.029,-0.72C-0.01,-0.739 -0.037,-0.751 -0.048,-0.751C-0.055,-0.751 -0.058,-0.747 -0.058,-0.74C-0.058,-0.729 -0.046,-0.703 -0.01,-0.66C0.068,-0.571 0.063,-0.511 0.138,-0.511C0.159,-0.511 0.18,-0.516 0.206,-0.522C0.196,-0.421 0.186,-0.273 0.184,-0.196C0.183,-0.133 0.183,-0.09 0.178,-0.06C0.173,-0.021 0.2,-0.001 0.268,-0.001C0.314,-0.001 0.333,0.004 0.352,0.016C0.364,0.024 0.376,0.028 0.39,0.028C0.439,0.028 0.594,-0.055 0.659,-0.102C0.768,-0.179 0.844,-0.278 0.844,-0.417C0.844,-0.528 0.805,-0.584 0.726,-0.596ZM0.365,-0.141C0.373,-0.286 0.377,-0.415 0.366,-0.544C0.376,-0.544 0.388,-0.544 0.399,-0.544C0.532,-0.544 0.599,-0.54 0.649,-0.532C0.656,-0.51 0.656,-0.49 0.656,-0.461C0.656,-0.298 0.551,-0.193 0.365,-0.141Z" style="fill-rule:nonzero;"/>
        </g>
        <g transform="matrix(62.5,0,0,62.5,305.376,705)">
            <path d="M0.74,0.055C0.707,-0.031 0.691,-0.089 0.684,-0.124C0.677,-0.157 0.658,-0.169 0.551,-0.169C0.458,-0.169 0.379,-0.159 0.334,-0.146C0.331,-0.192 0.328,-0.239 0.325,-0.287C0.48,-0.287 0.592,-0.284 0.641,-0.266C0.667,-0.256 0.671,-0.26 0.665,-0.281C0.661,-0.292 0.661,-0.306 0.66,-0.321C0.659,-0.372 0.658,-0.433 0.52,-0.433C0.455,-0.433 0.373,-0.419 0.321,-0.399C0.32,-0.444 0.32,-0.489 0.32,-0.532C0.363,-0.536 0.41,-0.537 0.456,-0.537C0.557,-0.537 0.652,-0.528 0.687,-0.52C0.708,-0.514 0.72,-0.522 0.713,-0.546C0.699,-0.593 0.689,-0.625 0.681,-0.644C0.662,-0.688 0.633,-0.702 0.55,-0.702C0.46,-0.702 0.337,-0.687 0.257,-0.687C0.105,-0.687 0.086,-0.695 0.025,-0.748C0.009,-0.763 -0.012,-0.757 -0.002,-0.732C0.013,-0.695 0.025,-0.652 0.032,-0.604C0.041,-0.541 0.049,-0.512 0.125,-0.512C0.134,-0.512 0.145,-0.512 0.157,-0.513C0.151,-0.44 0.138,-0.291 0.138,-0.224C0.138,-0.202 0.14,-0.179 0.143,-0.158C0.13,-0.121 0.126,-0.096 0.126,-0.057C0.126,-0.024 0.134,0.005 0.301,0.005C0.399,0.005 0.483,0 0.536,0C0.626,0 0.66,0.015 0.72,0.07C0.738,0.086 0.75,0.081 0.74,0.055Z" style="fill-rule:nonzero;"/>
        </g>
        <g transform="matrix(62.5,0,0,62.5,114,755)">
            <path d="M2.056,-0.682C2.011,-0.69 2.004,-0.713 1.995,-0.713C1.983,-0.713 1.992,-0.695 1.989,-0.666C1.987,-0.648 2.001,-0.636 2.075,-0.613C2.177,-0.581 2.242,-0.497 2.242,-0.362C2.242,-0.162 2.094,-0.084 1.935,-0.084C1.775,-0.084 1.65,-0.167 1.65,-0.334C1.65,-0.447 1.704,-0.543 1.804,-0.596C1.78,-0.559 1.793,-0.512 1.851,-0.512C1.899,-0.512 1.93,-0.545 1.93,-0.585C1.93,-0.625 1.9,-0.651 1.847,-0.651C1.731,-0.651 1.583,-0.525 1.583,-0.329C1.583,-0.249 1.608,-0.175 1.66,-0.118C1.727,-0.046 1.831,-0.013 1.94,-0.013C2.162,-0.013 2.306,-0.143 2.306,-0.367C2.306,-0.549 2.203,-0.654 2.056,-0.682ZM1.854,-0.215C1.867,-0.207 1.883,-0.201 1.898,-0.201C1.927,-0.201 1.938,-0.221 1.947,-0.25C1.96,-0.287 1.973,-0.349 1.978,-0.399C1.992,-0.306 2.013,-0.249 2.031,-0.204C2.036,-0.201 2.044,-0.2 2.052,-0.2C2.076,-0.2 2.104,-0.21 2.105,-0.233C2.11,-0.309 2.126,-0.403 2.178,-0.461C2.172,-0.473 2.16,-0.48 2.141,-0.48C2.105,-0.48 2.089,-0.453 2.078,-0.418C2.065,-0.377 2.059,-0.324 2.058,-0.266C2.036,-0.352 2.029,-0.438 1.995,-0.476C1.984,-0.479 1.974,-0.48 1.966,-0.48C1.938,-0.48 1.927,-0.465 1.922,-0.436C1.911,-0.354 1.883,-0.244 1.854,-0.215ZM1.79,-0.438C1.772,-0.358 1.749,-0.264 1.717,-0.233C1.725,-0.213 1.738,-0.206 1.753,-0.206C1.775,-0.206 1.793,-0.219 1.808,-0.246C1.829,-0.287 1.853,-0.388 1.862,-0.473C1.805,-0.473 1.796,-0.466 1.79,-0.438Z" style="fill-rule:nonzero;"/>
        </g>
        <g transform="matrix(62.5,0,0,62.5,114,805)">
            <path d="M0.51,0.055C0.483,-0.022 0.475,-0.065 0.477,-0.162C0.479,-0.326 0.461,-0.489 0.47,-0.662C0.471,-0.691 0.464,-0.708 0.439,-0.705C0.337,-0.695 0.277,-0.691 0.242,-0.691C0.202,-0.691 0.189,-0.696 0.181,-0.705C0.159,-0.724 0.137,-0.767 0.127,-0.767C0.12,-0.767 0.12,-0.745 0.131,-0.674C0.134,-0.658 0.135,-0.641 0.137,-0.625C0.141,-0.568 0.145,-0.521 0.206,-0.521C0.226,-0.521 0.254,-0.526 0.291,-0.539C0.291,-0.524 0.291,-0.509 0.291,-0.494C0.291,-0.307 0.266,-0.08 0.266,-0.058C0.266,-0.026 0.279,-0.019 0.31,-0.016C0.382,-0.008 0.435,0.018 0.489,0.07C0.505,0.085 0.517,0.076 0.51,0.055Z" style="fill-rule:nonzero;"/>
        </g>
        <g transform="matrix(62.5,0,0,62.5,149.95,805)">
            <path d="M0.85,-0.241C0.85,-0.377 0.831,-0.513 0.848,-0.655C0.853,-0.687 0.841,-0.708 0.791,-0.705C0.738,-0.702 0.699,-0.701 0.669,-0.701C0.557,-0.701 0.549,-0.751 0.53,-0.751C0.525,-0.751 0.522,-0.745 0.522,-0.73C0.522,-0.655 0.572,-0.547 0.629,-0.547C0.638,-0.547 0.648,-0.548 0.659,-0.552C0.664,-0.47 0.663,-0.374 0.663,-0.248C0.596,-0.357 0.482,-0.484 0.43,-0.56C0.357,-0.665 0.337,-0.693 0.261,-0.699C0.223,-0.702 0.143,-0.693 0.09,-0.705C0.044,-0.713 0.035,-0.788 0.021,-0.788C0.004,-0.788 0.002,-0.751 0.007,-0.671C0.013,-0.585 0.022,-0.537 0.075,-0.537C0.092,-0.537 0.114,-0.542 0.143,-0.553C0.142,-0.394 0.128,-0.23 0.122,-0.107C0.119,-0.054 0.127,-0.032 0.151,-0.021C0.176,-0.01 0.234,-0.006 0.272,-0.002C0.3,0.001 0.328,0.029 0.353,0.067C0.368,0.089 0.386,0.08 0.375,0.055C0.331,-0.049 0.318,-0.117 0.318,-0.252C0.318,-0.313 0.318,-0.374 0.313,-0.456C0.398,-0.319 0.511,-0.173 0.571,-0.108C0.63,-0.044 0.683,-0.016 0.749,0C0.794,0.011 0.81,0.024 0.847,0.085C0.854,0.096 0.863,0.104 0.873,0.104C0.883,0.104 0.89,0.095 0.89,0.07C0.89,0.026 0.85,-0.004 0.85,-0.241Z" style="fill-rule:nonzero;"/>
        </g>
        <g transform="matrix(62.5,0,0,62.5,208.604,805)">
            <path d="M0.719,-0.605C0.7,-0.693 0.621,-0.71 0.473,-0.71C0.331,-0.71 0.222,-0.696 0.157,-0.696C0.131,-0.696 0.112,-0.698 0.102,-0.705C0.057,-0.729 0.06,-0.766 0.04,-0.766C0.029,-0.766 0.024,-0.754 0.024,-0.735C0.024,-0.716 0.029,-0.688 0.04,-0.653C0.065,-0.563 0.052,-0.498 0.104,-0.498C0.124,-0.498 0.139,-0.502 0.158,-0.509C0.151,-0.447 0.149,-0.38 0.152,-0.318C0.158,-0.186 0.119,-0.062 0.119,-0.044C0.119,-0.023 0.136,-0.003 0.177,-0.003C0.193,-0.003 0.216,-0.006 0.237,-0.016C0.252,-0.022 0.261,-0.025 0.269,-0.025C0.281,-0.025 0.286,-0.014 0.291,0.015C0.295,0.046 0.313,0.061 0.344,0.061C0.408,0.061 0.574,-0.025 0.645,-0.078C0.751,-0.157 0.813,-0.257 0.813,-0.424C0.813,-0.499 0.794,-0.581 0.719,-0.605ZM0.34,-0.151C0.342,-0.305 0.336,-0.431 0.326,-0.543C0.359,-0.546 0.399,-0.547 0.448,-0.547C0.523,-0.547 0.572,-0.541 0.605,-0.534C0.616,-0.505 0.621,-0.467 0.621,-0.429C0.621,-0.272 0.485,-0.211 0.34,-0.151Z" style="fill-rule:nonzero;"/>
        </g>
        <g transform="matrix(62.5,0,0,62.5,262.438,805)">
            <path d="M0.405,0.106C0.36,-0.052 0.354,-0.18 0.355,-0.254C0.357,-0.371 0.345,-0.509 0.356,-0.655C0.359,-0.692 0.344,-0.71 0.312,-0.708C0.23,-0.699 0.175,-0.692 0.137,-0.692C0.098,-0.692 0.076,-0.699 0.06,-0.718C0.038,-0.744 0.015,-0.763 0.004,-0.763C-0.004,-0.763 -0.01,-0.754 -0.01,-0.744C-0.01,-0.637 0.023,-0.51 0.132,-0.51C0.147,-0.51 0.164,-0.514 0.181,-0.521C0.174,-0.388 0.162,-0.226 0.149,-0.1C0.144,-0.046 0.153,-0.031 0.19,-0.022C0.275,-0.004 0.327,0.036 0.379,0.101C0.406,0.135 0.408,0.137 0.41,0.137C0.411,0.137 0.412,0.136 0.412,0.135C0.412,0.131 0.411,0.126 0.405,0.106Z" style="fill-rule:nonzero;"/>
        </g>
        <g transform="matrix(62.5,0,0,62.5,290.91,805)">
            <path d="M1.011,0.086C0.915,-0.083 0.875,-0.169 0.839,-0.256C0.775,-0.41 0.713,-0.518 0.672,-0.573C0.682,-0.601 0.687,-0.63 0.687,-0.646C0.687,-0.698 0.649,-0.721 0.524,-0.721C0.438,-0.721 0.322,-0.702 0.23,-0.701C0.059,-0.702 0.077,-0.793 0.042,-0.793C0.031,-0.793 0.029,-0.782 0.029,-0.765C0.029,-0.744 0.039,-0.683 0.049,-0.645C0.077,-0.537 0.095,-0.5 0.129,-0.5C0.16,-0.5 0.219,-0.521 0.282,-0.531C0.17,-0.408 0.105,-0.26 0.105,-0.121C0.105,-0.039 0.127,-0.017 0.17,-0.007C0.212,0.002 0.266,0.019 0.34,0.089C0.361,0.109 0.367,0.092 0.357,0.07C0.326,-0.003 0.31,-0.06 0.303,-0.109C0.415,-0.136 0.583,-0.136 0.689,-0.129C0.699,-0.104 0.707,-0.083 0.713,-0.064C0.724,-0.028 0.735,-0.016 0.775,-0.01C0.873,0.002 0.916,0.029 0.991,0.098C1.011,0.117 1.022,0.106 1.011,0.086ZM0.326,-0.271C0.358,-0.365 0.417,-0.481 0.475,-0.568C0.522,-0.484 0.579,-0.375 0.625,-0.274C0.525,-0.289 0.414,-0.274 0.326,-0.271Z" style="fill-rule:nonzero;"/>
        </g>
    </g>
</svg>
