<?xml version="1.0" encoding="UTF-8" standalone="no"?>
<!DOCTYPE svg PUBLIC "-//W3C//DTD SVG 1.1//EN" "http://www.w3.org/Graphics/SVG/1.1/DTD/svg11.dtd">
<svg width="100%" height="100%" viewBox="0 0 280 196" version="1.1" xmlns="http://www.w3.org/2000/svg" xmlns:xlink="http://www.w3.org/1999/xlink" xml:space="preserve" xmlns:serif="http://www.serif.com/" style="fill-rule:evenodd;clip-rule:evenodd;stroke-linejoin:round;stroke-miterlimit:2;">
    <g transform="matrix(1,0,0,1,-89.7652,-634.862)">
        <g transform="matrix(62.5,0,0,62.5,114,705)">
            <path d="M1.073,-0.7L0.665,-0.7L0.665,-0.562L0.755,-0.551L0.63,-0.269L0.437,-0.7L0.029,-0.7L0.029,-0.548L0.211,-0.527L0.148,-0.465L0.137,0L0.341,0L0.331,-0.494L0.523,-0.063L0.705,-0.063L0.896,-0.494L0.885,0L1.09,0L1.073,-0.7Z" style="fill-rule:nonzero;"/>
        </g>
        <g transform="matrix(62.5,0,0,62.5,185.777,705)">
            <path d="M0.995,0L0.636,-0.7L0.122,-0.7L0.122,-0.548L0.351,-0.525L0.252,-0.474L0.134,-0.257L0.127,0L0.332,0L0.329,-0.131L0.7,-0.131L0.76,0L0.995,0ZM0.499,-0.572L0.633,-0.276L0.337,-0.276L0.499,-0.572Z" style="fill-rule:nonzero;"/>
        </g>
        <g transform="matrix(62.5,0,0,62.5,245.5,705)">
            <path d="M0,-0.7L0,-0.548L0.222,-0.527L0.159,-0.465L0.147,0L0.502,0L0.803,-0.214L0.795,-0.597L0.628,-0.7L0,-0.7ZM0.339,-0.527L0.617,-0.527L0.611,-0.292L0.349,-0.139L0.339,-0.527Z" style="fill-rule:nonzero;"/>
        </g>
        <g transform="matrix(62.5,0,0,62.5,298.753,705)">
            <path d="M0.157,0L0.717,0L0.713,-0.166L0.357,-0.166L0.354,-0.289L0.659,-0.289L0.656,-0.42L0.351,-0.42L0.349,-0.534L0.705,-0.534L0.701,-0.7L0.049,-0.7L0.049,-0.548L0.231,-0.527L0.167,-0.465L0.157,0Z" style="fill-rule:nonzero;"/>
        </g>
        <g transform="matrix(62.5,0,0,62.5,114,755)">
            <path d="M2.117,-0.583L2.018,-0.655L1.91,-0.676L1.896,-0.619L1.982,-0.603L2.072,-0.545L2.124,-0.455L2.138,-0.364L2.125,-0.266L2.07,-0.17L1.983,-0.117L1.859,-0.097L1.75,-0.112L1.659,-0.161L1.605,-0.238L1.585,-0.328L1.599,-0.42L1.652,-0.513L1.726,-0.567L1.724,-0.532L1.773,-0.512L1.822,-0.529L1.841,-0.571L1.823,-0.615L1.773,-0.633L1.703,-0.614L1.609,-0.552L1.543,-0.445L1.522,-0.329L1.547,-0.209L1.62,-0.112L1.707,-0.059L1.859,-0.032L2.009,-0.057L2.12,-0.129L2.184,-0.241L2.202,-0.364L2.184,-0.479L2.117,-0.583ZM1.677,-0.219L1.735,-0.219L1.782,-0.436L1.782,-0.469L1.725,-0.469L1.677,-0.252L1.677,-0.219ZM1.857,-0.219L1.895,-0.394L1.94,-0.219L2.008,-0.219L2.057,-0.436L2.057,-0.469L1.999,-0.469L1.961,-0.293L1.916,-0.469L1.848,-0.469L1.801,-0.252L1.801,-0.219L1.857,-0.219Z" style="fill-rule:nonzero;"/>
        </g>
        <g transform="matrix(62.5,0,0,62.5,114,805)">
            <path d="M0.413,-0.7L0.09,-0.7L0.09,-0.548L0.3,-0.527L0.236,-0.465L0.225,0L0.43,0L0.413,-0.7Z" style="fill-rule:nonzero;"/>
        </g>
        <g transform="matrix(62.5,0,0,62.5,143.907,805)">
            <path d="M0.879,-0.7L0.623,-0.7L0.623,-0.562L0.766,-0.534L0.703,-0.472L0.7,-0.281L0.359,-0.7L0.063,-0.7L0.063,-0.548L0.246,-0.527L0.182,-0.465L0.171,0L0.375,0L0.366,-0.431L0.691,0L0.896,0L0.879,-0.7Z" style="fill-rule:nonzero;"/>
        </g>
        <g transform="matrix(62.5,0,0,62.5,202.959,805)">
            <path d="M0.054,-0.7L0.054,-0.548L0.236,-0.527L0.173,-0.465L0.162,0L0.517,0L0.818,-0.214L0.81,-0.596L0.642,-0.7L0.054,-0.7ZM0.354,-0.527L0.631,-0.527L0.625,-0.292L0.363,-0.139L0.354,-0.527Z" style="fill-rule:nonzero;"/>
        </g>
        <g transform="matrix(62.5,0,0,62.5,257.127,805)">
            <path d="M0.323,-0.7L0.049,-0.7L0.049,-0.543L0.21,-0.527L0.146,-0.465L0.135,0L0.34,0L0.323,-0.7Z" style="fill-rule:nonzero;"/>
        </g>
        <g transform="matrix(62.5,0,0,62.5,281.419,805)">
            <path d="M0.995,0L0.636,-0.7L0.122,-0.7L0.122,-0.548L0.351,-0.525L0.252,-0.474L0.134,-0.257L0.127,0L0.332,0L0.329,-0.131L0.7,-0.131L0.76,0L0.995,0ZM0.499,-0.572L0.633,-0.276L0.337,-0.276L0.499,-0.572Z" style="fill-rule:nonzero;"/>
        </g>
    </g>
</svg>
