<?xml version="1.0" encoding="UTF-8" standalone="no"?>
<!DOCTYPE svg PUBLIC "-//W3C//DTD SVG 1.1//EN" "http://www.w3.org/Graphics/SVG/1.1/DTD/svg11.dtd">
<svg width="100%" height="100%" viewBox="0 0 473 354" version="1.1" xmlns="http://www.w3.org/2000/svg" xmlns:xlink="http://www.w3.org/1999/xlink" xml:space="preserve" xmlns:serif="http://www.serif.com/" style="fill-rule:evenodd;clip-rule:evenodd;stroke-linejoin:round;stroke-miterlimit:2;">
    <g transform="matrix(1,0,0,1,-96.2918,-591.272)">
        <g transform="matrix(135.417,0,0,135.417,114,705)">
            <path d="M1.037,0.046C0.976,-0.063 0.969,-0.101 0.964,-0.245C0.958,-0.382 0.957,-0.524 0.978,-0.669C0.98,-0.687 0.979,-0.703 0.919,-0.703C0.879,-0.703 0.759,-0.695 0.683,-0.695C0.641,-0.695 0.616,-0.696 0.601,-0.708C0.584,-0.719 0.577,-0.721 0.574,-0.721C0.57,-0.721 0.569,-0.719 0.569,-0.714C0.569,-0.706 0.571,-0.689 0.576,-0.663C0.587,-0.578 0.595,-0.543 0.635,-0.543C0.644,-0.543 0.653,-0.544 0.665,-0.548C0.639,-0.501 0.599,-0.43 0.563,-0.364C0.511,-0.486 0.452,-0.604 0.4,-0.668C0.372,-0.704 0.346,-0.709 0.311,-0.709C0.271,-0.709 0.176,-0.696 0.125,-0.696C0.097,-0.696 0.075,-0.699 0.056,-0.705C0.028,-0.713 0.013,-0.717 0.005,-0.717C-0.002,-0.717 -0.005,-0.713 -0.005,-0.703C-0.005,-0.694 -0.002,-0.677 0.002,-0.655C0.016,-0.569 0.031,-0.51 0.099,-0.51C0.111,-0.51 0.123,-0.515 0.138,-0.52C0.143,-0.363 0.135,-0.19 0.127,-0.108C0.121,-0.052 0.135,-0.038 0.172,-0.029C0.239,-0.014 0.282,0.013 0.338,0.059C0.36,0.077 0.379,0.067 0.366,0.036C0.346,-0.009 0.331,-0.035 0.323,-0.078C0.305,-0.177 0.302,-0.303 0.308,-0.443C0.348,-0.356 0.392,-0.228 0.441,-0.105C0.446,-0.093 0.453,-0.087 0.478,-0.088C0.514,-0.088 0.544,-0.095 0.567,-0.108C0.582,-0.097 0.597,-0.089 0.607,-0.089C0.632,-0.089 0.64,-0.103 0.664,-0.18C0.686,-0.255 0.723,-0.352 0.769,-0.442C0.77,-0.383 0.771,-0.327 0.765,-0.266C0.759,-0.209 0.754,-0.125 0.756,-0.071C0.758,-0.041 0.769,-0.032 0.812,-0.025C0.896,-0.012 0.959,0.016 1.013,0.063C1.037,0.084 1.051,0.071 1.037,0.046Z" style="fill-rule:nonzero;"/>
        </g>
        <g transform="matrix(135.417,0,0,135.417,255.83,705)">
            <path d="M0.799,0.015C0.778,-0.032 0.756,-0.089 0.736,-0.151C0.712,-0.221 0.635,-0.347 0.52,-0.637C0.502,-0.683 0.49,-0.698 0.435,-0.701C0.369,-0.704 0.31,-0.701 0.259,-0.697C0.209,-0.692 0.167,-0.688 0.135,-0.688C0.078,-0.688 0.042,-0.71 0.038,-0.71C0.036,-0.71 0.034,-0.709 0.034,-0.703C0.034,-0.696 0.044,-0.619 0.048,-0.603C0.062,-0.535 0.086,-0.509 0.147,-0.509C0.161,-0.509 0.175,-0.51 0.19,-0.512C0.094,-0.397 0.037,-0.266 0.037,-0.137C0.037,-0.077 0.049,-0.042 0.088,-0.02C0.128,0.003 0.221,-0.003 0.305,0.049C0.328,0.063 0.342,0.052 0.324,0.028C0.28,-0.029 0.26,-0.069 0.254,-0.115C0.303,-0.128 0.363,-0.13 0.5,-0.132C0.504,-0.12 0.507,-0.107 0.509,-0.096C0.52,-0.047 0.533,-0.031 0.568,-0.029C0.66,-0.024 0.713,-0.006 0.769,0.036C0.791,0.052 0.81,0.04 0.799,0.015ZM0.269,-0.271C0.286,-0.347 0.316,-0.432 0.363,-0.502C0.398,-0.428 0.43,-0.35 0.456,-0.276C0.403,-0.28 0.327,-0.278 0.269,-0.271Z" style="fill-rule:nonzero;"/>
        </g>
        <g transform="matrix(135.417,0,0,135.417,359.178,705)">
            <path d="M0.593,-0.61C0.56,-0.713 0.521,-0.716 0.333,-0.716C0.156,-0.716 0.014,-0.692 -0.027,-0.711C-0.042,-0.717 -0.051,-0.723 -0.057,-0.723C-0.061,-0.723 -0.063,-0.72 -0.063,-0.713C-0.063,-0.705 -0.059,-0.688 -0.052,-0.662C-0.017,-0.534 0.015,-0.507 0.076,-0.507C0.091,-0.507 0.104,-0.509 0.118,-0.512C0.108,-0.412 0.099,-0.271 0.097,-0.198C0.095,-0.134 0.095,-0.092 0.091,-0.061C0.086,-0.022 0.113,-0.009 0.223,-0.009C0.268,-0.009 0.297,0.001 0.307,0.016C0.315,0.027 0.319,0.03 0.327,0.03C0.356,0.03 0.503,-0.06 0.548,-0.1C0.642,-0.18 0.688,-0.278 0.688,-0.405C0.688,-0.507 0.665,-0.578 0.593,-0.61ZM0.301,-0.17C0.303,-0.292 0.304,-0.412 0.294,-0.534L0.315,-0.534C0.354,-0.534 0.413,-0.534 0.468,-0.527C0.482,-0.499 0.492,-0.464 0.492,-0.422C0.492,-0.291 0.417,-0.208 0.301,-0.17Z" style="fill-rule:nonzero;"/>
        </g>
        <g transform="matrix(135.417,0,0,135.417,457.633,705)">
            <path d="M0.618,0.011C0.604,-0.037 0.584,-0.103 0.579,-0.127C0.572,-0.161 0.553,-0.179 0.466,-0.179C0.413,-0.179 0.352,-0.172 0.307,-0.164C0.303,-0.205 0.3,-0.247 0.297,-0.289C0.432,-0.289 0.501,-0.286 0.547,-0.269C0.574,-0.259 0.578,-0.263 0.571,-0.284C0.567,-0.296 0.567,-0.313 0.567,-0.329C0.567,-0.382 0.567,-0.442 0.448,-0.442C0.407,-0.442 0.342,-0.435 0.292,-0.42C0.292,-0.457 0.291,-0.493 0.292,-0.529C0.325,-0.532 0.359,-0.534 0.391,-0.534C0.477,-0.534 0.551,-0.525 0.584,-0.516C0.607,-0.509 0.618,-0.518 0.611,-0.542C0.597,-0.589 0.587,-0.627 0.579,-0.647C0.56,-0.691 0.531,-0.705 0.47,-0.705C0.407,-0.705 0.274,-0.689 0.197,-0.689C0.114,-0.689 0.06,-0.689 0.024,-0.701C0.002,-0.708 -0.011,-0.708 0.003,-0.683C0.01,-0.67 0.02,-0.655 0.027,-0.606C0.038,-0.529 0.052,-0.502 0.105,-0.502L0.107,-0.502C0.101,-0.429 0.086,-0.303 0.086,-0.239C0.086,-0.219 0.087,-0.194 0.097,-0.146C0.093,-0.122 0.09,-0.101 0.09,-0.083C0.09,-0.038 0.11,0.002 0.214,0.002C0.248,0.002 0.408,-0.002 0.451,-0.002C0.521,-0.002 0.56,0.009 0.593,0.03C0.614,0.042 0.626,0.037 0.618,0.011Z" style="fill-rule:nonzero;"/>
        </g>
        <g transform="matrix(135.417,0,0,135.417,114,813.333)">
            <path d="M1.732,-0.666C1.673,-0.672 1.671,-0.699 1.662,-0.699C1.652,-0.699 1.643,-0.685 1.643,-0.665C1.643,-0.627 1.666,-0.61 1.736,-0.594C1.793,-0.581 1.88,-0.551 1.88,-0.381C1.88,-0.177 1.754,-0.094 1.6,-0.094C1.423,-0.094 1.338,-0.202 1.338,-0.332C1.338,-0.438 1.396,-0.532 1.476,-0.566C1.466,-0.538 1.481,-0.515 1.521,-0.515C1.557,-0.515 1.595,-0.536 1.595,-0.584C1.595,-0.616 1.578,-0.653 1.521,-0.653C1.415,-0.653 1.268,-0.529 1.268,-0.334C1.268,-0.257 1.291,-0.187 1.338,-0.129C1.398,-0.056 1.492,-0.012 1.609,-0.012C1.815,-0.012 1.954,-0.148 1.954,-0.378C1.954,-0.607 1.807,-0.657 1.732,-0.666ZM1.526,-0.226C1.539,-0.222 1.556,-0.218 1.572,-0.218C1.603,-0.218 1.622,-0.234 1.633,-0.267C1.64,-0.288 1.645,-0.326 1.646,-0.378C1.658,-0.308 1.676,-0.253 1.69,-0.216C1.696,-0.214 1.704,-0.213 1.712,-0.213C1.734,-0.213 1.76,-0.218 1.765,-0.255C1.782,-0.369 1.804,-0.436 1.841,-0.477C1.833,-0.489 1.817,-0.497 1.8,-0.497C1.764,-0.497 1.733,-0.462 1.727,-0.419C1.721,-0.389 1.719,-0.348 1.719,-0.289C1.698,-0.369 1.683,-0.448 1.663,-0.478C1.653,-0.479 1.646,-0.48 1.638,-0.48C1.609,-0.48 1.593,-0.471 1.588,-0.438C1.577,-0.36 1.567,-0.301 1.526,-0.226ZM1.46,-0.439C1.428,-0.301 1.412,-0.264 1.392,-0.245C1.4,-0.225 1.414,-0.218 1.431,-0.218C1.454,-0.218 1.475,-0.232 1.49,-0.257C1.522,-0.31 1.546,-0.445 1.55,-0.474C1.473,-0.474 1.468,-0.471 1.46,-0.439Z" style="fill-rule:nonzero;"/>
        </g>
        <g transform="matrix(135.417,0,0,135.417,114,921.667)">
            <path d="M0.438,0.014C0.416,-0.041 0.407,-0.084 0.407,-0.161C0.407,-0.326 0.392,-0.488 0.4,-0.661C0.402,-0.69 0.395,-0.705 0.37,-0.704C0.309,-0.701 0.224,-0.696 0.174,-0.696C0.155,-0.696 0.139,-0.697 0.125,-0.704C0.112,-0.71 0.095,-0.733 0.088,-0.733C0.084,-0.733 0.084,-0.719 0.09,-0.673C0.091,-0.657 0.092,-0.642 0.092,-0.625C0.097,-0.56 0.099,-0.502 0.179,-0.502C0.19,-0.502 0.203,-0.503 0.217,-0.506C0.218,-0.483 0.218,-0.46 0.218,-0.438C0.218,-0.268 0.197,-0.085 0.197,-0.061C0.197,-0.026 0.21,-0.018 0.24,-0.015C0.307,-0.008 0.355,0.006 0.416,0.035C0.436,0.044 0.446,0.035 0.438,0.014Z" style="fill-rule:nonzero;"/>
        </g>
        <g transform="matrix(135.417,0,0,135.417,178.27,921.667)">
            <path d="M0.75,-0.24C0.75,-0.376 0.731,-0.512 0.749,-0.654C0.753,-0.686 0.742,-0.7 0.713,-0.7C0.667,-0.7 0.588,-0.693 0.53,-0.693C0.469,-0.693 0.455,-0.709 0.444,-0.709C0.44,-0.709 0.438,-0.708 0.438,-0.703C0.438,-0.65 0.477,-0.53 0.517,-0.53C0.528,-0.53 0.542,-0.533 0.556,-0.538C0.557,-0.461 0.559,-0.399 0.559,-0.304C0.512,-0.396 0.44,-0.48 0.4,-0.54C0.315,-0.661 0.307,-0.688 0.231,-0.693C0.178,-0.697 0.086,-0.688 0.041,-0.696C0.009,-0.701 0.008,-0.711 0,-0.711C-0.009,-0.711 -0.003,-0.696 0,-0.651C0.005,-0.562 0.01,-0.513 0.068,-0.513C0.081,-0.513 0.095,-0.516 0.113,-0.52C0.111,-0.371 0.098,-0.223 0.092,-0.106C0.089,-0.053 0.098,-0.031 0.121,-0.021C0.146,-0.009 0.204,-0.005 0.243,-0.001C0.27,0.002 0.295,0.002 0.317,0.028C0.335,0.049 0.349,0.039 0.339,0.014C0.303,-0.08 0.295,-0.134 0.295,-0.251C0.295,-0.292 0.295,-0.333 0.294,-0.374C0.362,-0.293 0.435,-0.18 0.479,-0.101C0.525,-0.016 0.549,-0.006 0.669,0.003C0.704,0.006 0.727,0.013 0.745,0.025C0.759,0.035 0.777,0.041 0.787,0.041C0.799,0.041 0.809,0.035 0.809,0.019C0.809,-0.019 0.75,-0.029 0.75,-0.24Z" style="fill-rule:nonzero;"/>
        </g>
        <g transform="matrix(135.417,0,0,135.417,290.412,921.667)">
            <path d="M0.626,-0.596C0.601,-0.691 0.523,-0.709 0.374,-0.709C0.211,-0.709 0.148,-0.68 0.065,-0.68C0.047,-0.68 0.035,-0.683 0.025,-0.688C0.015,-0.694 0.01,-0.697 0.005,-0.697C0.003,-0.697 0,-0.696 0,-0.69C0,-0.682 0.007,-0.607 0.011,-0.583C0.02,-0.519 0.033,-0.475 0.075,-0.475C0.091,-0.475 0.102,-0.477 0.114,-0.481C0.109,-0.427 0.106,-0.371 0.109,-0.317C0.119,-0.111 0.075,-0.061 0.075,-0.044C0.075,-0.021 0.102,-0.004 0.162,-0.004C0.177,-0.004 0.195,-0.005 0.215,-0.008C0.228,-0.009 0.239,-0.011 0.249,-0.011C0.275,-0.011 0.29,-0.004 0.289,0.016C0.289,0.032 0.295,0.039 0.307,0.039C0.347,0.039 0.514,-0.056 0.572,-0.106C0.659,-0.181 0.7,-0.273 0.7,-0.423C0.7,-0.491 0.685,-0.565 0.626,-0.596ZM0.312,-0.182C0.315,-0.302 0.312,-0.41 0.302,-0.517C0.313,-0.518 0.324,-0.518 0.336,-0.518C0.417,-0.518 0.466,-0.511 0.498,-0.502C0.504,-0.481 0.508,-0.454 0.508,-0.414C0.508,-0.276 0.394,-0.217 0.312,-0.182Z" style="fill-rule:nonzero;"/>
        </g>
        <g transform="matrix(135.417,0,0,135.417,389.197,921.667)">
            <path d="M0.309,0.024C0.3,-0.051 0.298,-0.179 0.3,-0.254C0.302,-0.37 0.29,-0.508 0.301,-0.654C0.304,-0.691 0.293,-0.707 0.261,-0.7C0.233,-0.694 0.188,-0.69 0.145,-0.69C0.097,-0.69 0.052,-0.694 0.032,-0.707C0.022,-0.712 0.017,-0.715 0.014,-0.715C0.011,-0.715 0.01,-0.712 0.01,-0.708C0.01,-0.614 0.026,-0.501 0.087,-0.501C0.094,-0.501 0.102,-0.502 0.11,-0.505C0.101,-0.377 0.096,-0.226 0.083,-0.099C0.077,-0.045 0.087,-0.03 0.124,-0.021C0.162,-0.013 0.245,0.004 0.281,0.037C0.295,0.05 0.304,0.057 0.308,0.057C0.311,0.057 0.312,0.055 0.312,0.049C0.312,0.044 0.311,0.036 0.309,0.024Z" style="fill-rule:nonzero;"/>
        </g>
        <g transform="matrix(135.417,0,0,135.417,438.656,921.667)">
            <path d="M0.863,0.031C0.8,-0.083 0.761,-0.168 0.725,-0.255C0.675,-0.375 0.618,-0.482 0.566,-0.555C0.571,-0.575 0.573,-0.596 0.573,-0.614C0.573,-0.68 0.555,-0.704 0.438,-0.704C0.356,-0.704 0.263,-0.691 0.18,-0.691C0.112,-0.691 0.047,-0.711 0.036,-0.711C0.032,-0.711 0.029,-0.709 0.029,-0.704C0.029,-0.691 0.038,-0.653 0.054,-0.6C0.079,-0.523 0.094,-0.5 0.122,-0.5C0.143,-0.5 0.168,-0.509 0.197,-0.518C0.099,-0.375 0.047,-0.244 0.047,-0.12C0.047,-0.038 0.083,-0.016 0.126,-0.006C0.167,0.003 0.221,0.02 0.297,0.049C0.322,0.059 0.328,0.05 0.313,0.029C0.284,-0.009 0.268,-0.053 0.261,-0.096C0.359,-0.124 0.468,-0.131 0.539,-0.124C0.544,-0.102 0.549,-0.082 0.551,-0.064C0.557,-0.027 0.563,-0.019 0.603,-0.012C0.685,0.002 0.772,0.016 0.841,0.05C0.866,0.063 0.876,0.053 0.863,0.031ZM0.275,-0.252C0.299,-0.329 0.341,-0.424 0.38,-0.504C0.415,-0.446 0.452,-0.367 0.483,-0.288C0.386,-0.28 0.323,-0.262 0.275,-0.252Z" style="fill-rule:nonzero;"/>
        </g>
    </g>
</svg>
