<?xml version="1.0" encoding="UTF-8" standalone="no"?>
<!DOCTYPE svg PUBLIC "-//W3C//DTD SVG 1.1//EN" "http://www.w3.org/Graphics/SVG/1.1/DTD/svg11.dtd">
<svg width="100%" height="100%" viewBox="0 0 1132 135" version="1.1" xmlns="http://www.w3.org/2000/svg" xmlns:xlink="http://www.w3.org/1999/xlink" xml:space="preserve" xmlns:serif="http://www.serif.com/" style="fill-rule:evenodd;clip-rule:evenodd;stroke-linejoin:round;stroke-miterlimit:2;">
    <g transform="matrix(1,0,0,1,-76.7906,-587.924)">
        <g transform="matrix(135.417,0,0,135.417,114,705)">
            <path d="M0.972,-0.7L0.585,-0.7L0.582,-0.697L0.585,-0.546L0.646,-0.534L0.559,-0.321L0.397,-0.7L0.02,-0.7L0.017,-0.697L0.02,-0.532L0.147,-0.511L0.113,-0.457L0.102,-0.003L0.105,0L0.306,0L0.296,-0.462L0.452,-0.082L0.455,-0.08L0.631,-0.08L0.634,-0.082L0.789,-0.462L0.779,0L0.988,0L0.991,-0.003L0.975,-0.697L0.972,-0.7Z" style="fill-rule:nonzero;"/>
        </g>
        <g transform="matrix(135.417,0,0,135.417,257.153,705)">
            <path d="M0.56,-0.7L0.098,-0.7L0.095,-0.697L0.098,-0.532L0.252,-0.509L0.187,-0.46L0.087,-0.267L0.082,-0.003L0.084,0L0.291,0L0.288,-0.123L0.598,-0.123L0.648,0L0.891,0L0.894,-0.003L0.563,-0.698L0.56,-0.7ZM0.427,-0.538L0.533,-0.281L0.299,-0.277L0.427,-0.538Z" style="fill-rule:nonzero;"/>
        </g>
        <g transform="matrix(135.417,0,0,135.417,371.146,705)">
            <path d="M0.004,-0.7L0.001,-0.697L0.004,-0.532L0.162,-0.511L0.127,-0.457L0.116,-0.003L0.12,0L0.471,0L0.74,-0.22L0.731,-0.591L0.557,-0.7L0.004,-0.7ZM0.316,-0.519L0.537,-0.521L0.546,-0.514L0.54,-0.302L0.325,-0.15L0.316,-0.519Z" style="fill-rule:nonzero;"/>
        </g>
        <g transform="matrix(135.417,0,0,135.417,477.469,705)">
            <path d="M0.637,0L0.64,-0.003L0.635,-0.169L0.632,-0.172L0.316,-0.168L0.313,-0.285L0.586,-0.285L0.589,-0.288L0.586,-0.426L0.583,-0.43L0.31,-0.424L0.308,-0.532L0.624,-0.529L0.627,-0.532L0.623,-0.697L0.62,-0.7L0.025,-0.7L0.022,-0.697L0.025,-0.532L0.153,-0.511L0.119,-0.457L0.107,-0.003L0.111,0L0.637,0Z" style="fill-rule:nonzero;"/>
        </g>
        <g transform="matrix(135.417,0,0,135.417,612.291,705)">
            <path d="M0.644,-0.698L0.498,-0.801L0.357,-0.828L0.337,-0.747L0.456,-0.722L0.578,-0.638L0.648,-0.512L0.667,-0.382L0.649,-0.245L0.578,-0.114L0.458,-0.03L0.288,0L0.146,-0.021L0.024,-0.088L-0.054,-0.199L-0.081,-0.332L-0.06,-0.462L0.012,-0.584L0.104,-0.649L0.113,-0.617L0.178,-0.589L0.242,-0.613L0.269,-0.673L0.243,-0.737L0.178,-0.761L0.081,-0.734L-0.052,-0.645L-0.144,-0.499L-0.174,-0.333L-0.14,-0.162L-0.039,-0.021L0.099,0.062L0.288,0.094L0.494,0.057L0.647,-0.048L0.735,-0.207L0.761,-0.382L0.735,-0.548L0.644,-0.698ZM0.035,-0.167L0.123,-0.167L0.197,-0.486L0.197,-0.534L0.11,-0.534L0.035,-0.215L0.035,-0.167ZM0.292,-0.167L0.344,-0.395L0.395,-0.167L0.496,-0.167L0.57,-0.486L0.57,-0.534L0.482,-0.534L0.43,-0.306L0.379,-0.534L0.278,-0.534L0.205,-0.215L0.205,-0.167L0.292,-0.167Z" style="fill-rule:nonzero;"/>
        </g>
        <g transform="matrix(135.417,0,0,135.417,724.962,705)">
            <path d="M0.068,-0.7L0.065,-0.697L0.068,-0.532L0.208,-0.511L0.173,-0.457L0.162,-0.003L0.166,0L0.371,0L0.375,-0.003L0.358,-0.697L0.354,-0.7L0.068,-0.7Z" style="fill-rule:nonzero;"/>
        </g>
        <g transform="matrix(135.417,0,0,135.417,783.81,705)">
            <path d="M0.541,-0.7L0.538,-0.697L0.541,-0.542L0.644,-0.52L0.608,-0.459L0.605,-0.313L0.313,-0.7L0.034,-0.7L0.031,-0.697L0.034,-0.532L0.162,-0.511L0.127,-0.457L0.116,-0.003L0.12,0L0.329,0L0.32,-0.399L0.597,0L0.807,0L0.81,-0.003L0.793,-0.697L0.79,-0.7L0.541,-0.7Z" style="fill-rule:nonzero;"/>
        </g>
        <g transform="matrix(135.417,0,0,135.417,901.638,705)">
            <path d="M0.031,-0.7L0.027,-0.697L0.031,-0.532L0.158,-0.511L0.124,-0.457L0.113,-0.003L0.116,0L0.467,0L0.737,-0.22L0.728,-0.591L0.553,-0.7L0.031,-0.7ZM0.313,-0.519L0.533,-0.521L0.542,-0.514L0.536,-0.302L0.321,-0.15L0.313,-0.519Z" style="fill-rule:nonzero;"/>
        </g>
        <g transform="matrix(135.417,0,0,135.417,1007.5,705)">
            <path d="M0.025,-0.7L0.022,-0.697L0.025,-0.53L0.144,-0.511L0.11,-0.457L0.099,-0.003L0.102,0L0.308,0L0.311,-0.003L0.294,-0.697L0.291,-0.7L0.025,-0.7Z" style="fill-rule:nonzero;"/>
        </g>
        <g transform="matrix(135.417,0,0,135.417,1057.75,705)">
            <path d="M0.56,-0.7L0.098,-0.7L0.095,-0.697L0.098,-0.532L0.252,-0.509L0.187,-0.46L0.087,-0.267L0.082,-0.003L0.084,0L0.291,0L0.288,-0.123L0.598,-0.123L0.648,0L0.891,0L0.894,-0.003L0.563,-0.698L0.56,-0.7ZM0.427,-0.538L0.533,-0.281L0.299,-0.277L0.427,-0.538Z" style="fill-rule:nonzero;"/>
        </g>
    </g>
</svg>
