<?xml version="1.0" encoding="UTF-8" standalone="no"?>
<!DOCTYPE svg PUBLIC "-//W3C//DTD SVG 1.1//EN" "http://www.w3.org/Graphics/SVG/1.1/DTD/svg11.dtd">
<svg width="100%" height="100%" viewBox="0 0 473 354" version="1.1" xmlns="http://www.w3.org/2000/svg" xmlns:xlink="http://www.w3.org/1999/xlink" xml:space="preserve" xmlns:serif="http://www.serif.com/" style="fill-rule:evenodd;clip-rule:evenodd;stroke-linejoin:round;stroke-miterlimit:2;">
    <g transform="matrix(1,0,0,1,-86.7906,-588.924)">
        <g transform="matrix(135.417,0,0,135.417,114,705)">
            <path d="M0.896,-0.7L0.526,-0.7L0.521,-0.694L0.526,-0.534L0.568,-0.523L0.506,-0.362L0.368,-0.7L0.013,-0.7L0.007,-0.694L0.013,-0.521L0.1,-0.499L0.087,-0.45L0.076,-0.005L0.082,0L0.28,0L0.27,-0.437L0.398,-0.095L0.404,-0.091L0.576,-0.091L0.582,-0.095L0.71,-0.436L0.701,0L0.913,0L0.918,-0.005L0.902,-0.694L0.896,-0.7Z" style="fill:rgb(255,153,51);fill-rule:nonzero;"/>
        </g>
        <g transform="matrix(135.417,0,0,135.417,247.962,705)">
            <path d="M0.503,-0.7L0.081,-0.7L0.075,-0.694L0.081,-0.521L0.18,-0.497L0.139,-0.45L0.053,-0.275L0.047,-0.005L0.053,0L0.26,0L0.257,-0.117L0.522,-0.117L0.566,0L0.814,0L0.819,-0.005L0.51,-0.696L0.503,-0.7ZM0.375,-0.507L0.459,-0.285L0.271,-0.277L0.375,-0.507Z" style="fill:rgb(255,153,51);fill-rule:nonzero;"/>
        </g>
        <g transform="matrix(135.417,0,0,135.417,350.582,705)">
            <path d="M0.008,-0.7L0.002,-0.694L0.008,-0.521L0.117,-0.499L0.104,-0.45L0.093,-0.005L0.099,0L0.448,0L0.694,-0.225L0.684,-0.587L0.505,-0.7L0.008,-0.7ZM0.299,-0.512L0.477,-0.517L0.494,-0.504L0.487,-0.309L0.307,-0.159L0.299,-0.512Z" style="fill:rgb(255,153,51);fill-rule:nonzero;"/>
        </g>
        <g transform="matrix(135.417,0,0,135.417,450.161,705)">
            <path d="M0.577,0L0.583,-0.005L0.578,-0.171L0.573,-0.177L0.286,-0.17L0.283,-0.282L0.533,-0.282L0.538,-0.287L0.534,-0.431L0.529,-0.437L0.28,-0.427L0.277,-0.53L0.564,-0.525L0.57,-0.53L0.566,-0.694L0.561,-0.7L0.008,-0.7L0.002,-0.694L0.008,-0.521L0.095,-0.499L0.083,-0.45L0.071,-0.005L0.077,0L0.577,0Z" style="fill:rgb(255,153,51);fill-rule:nonzero;"/>
        </g>
        <g transform="matrix(135.417,0,0,135.417,114,813.333)">
            <path d="M1.799,-0.607L1.688,-0.684L1.589,-0.703L1.574,-0.643L1.661,-0.623L1.749,-0.559L1.799,-0.466L1.814,-0.369L1.8,-0.267L1.75,-0.172L1.662,-0.105L1.539,-0.082L1.441,-0.097L1.354,-0.146L1.294,-0.229L1.275,-0.332L1.292,-0.429L1.344,-0.514L1.411,-0.56L1.419,-0.542L1.464,-0.521L1.51,-0.539L1.529,-0.584L1.51,-0.633L1.464,-0.649L1.393,-0.63L1.294,-0.563L1.227,-0.456L1.204,-0.332L1.229,-0.204L1.303,-0.097L1.414,-0.031L1.539,-0.01L1.689,-0.039L1.801,-0.119L1.866,-0.238L1.886,-0.369L1.866,-0.494L1.799,-0.607ZM1.414,-0.485L1.354,-0.238L1.354,-0.202L1.423,-0.202L1.482,-0.449L1.482,-0.485L1.414,-0.485ZM1.615,-0.202L1.692,-0.202L1.751,-0.449L1.751,-0.485L1.683,-0.485L1.644,-0.325L1.614,-0.485L1.536,-0.485L1.477,-0.238L1.477,-0.202L1.546,-0.202L1.584,-0.362L1.615,-0.202Z" style="fill:rgb(0,0,128);fill-rule:nonzero;"/>
        </g>
        <g transform="matrix(135.417,0,0,135.417,114,921.667)">
            <path d="M0.052,-0.7L0.046,-0.694L0.052,-0.521L0.139,-0.498L0.126,-0.45L0.116,-0.005L0.121,0L0.328,0L0.333,-0.005L0.317,-0.694L0.312,-0.7L0.052,-0.7Z" style="fill:rgb(19,136,8);fill-rule:nonzero;"/>
        </g>
        <g transform="matrix(135.417,0,0,135.417,168.484,921.667)">
            <path d="M0.481,-0.7L0.476,-0.695L0.481,-0.528L0.554,-0.51L0.539,-0.45L0.536,-0.337L0.278,-0.7L0.013,-0.7L0.007,-0.695L0.013,-0.521L0.1,-0.499L0.087,-0.45L0.076,-0.005L0.082,0L0.294,0L0.286,-0.376L0.528,0L0.741,0L0.746,-0.005L0.729,-0.695L0.724,-0.7L0.481,-0.7Z" style="fill:rgb(19,136,8);fill-rule:nonzero;"/>
        </g>
        <g transform="matrix(135.417,0,0,135.417,278.841,921.667)">
            <path d="M0.013,-0.7L0.007,-0.694L0.013,-0.521L0.1,-0.498L0.087,-0.45L0.077,-0.005L0.082,0L0.431,0L0.677,-0.225L0.667,-0.586L0.488,-0.7L0.013,-0.7ZM0.282,-0.512L0.46,-0.516L0.477,-0.504L0.47,-0.309L0.291,-0.159L0.282,-0.512Z" style="fill:rgb(19,136,8);fill-rule:nonzero;"/>
        </g>
        <g transform="matrix(135.417,0,0,135.417,376.171,921.667)">
            <path d="M0.008,-0.7L0.003,-0.694L0.008,-0.521L0.095,-0.498L0.083,-0.45L0.072,-0.005L0.077,0L0.284,0L0.29,-0.005L0.273,-0.694L0.268,-0.7L0.008,-0.7Z" style="fill:rgb(19,136,8);fill-rule:nonzero;"/>
        </g>
        <g transform="matrix(135.417,0,0,135.417,424.705,921.667)">
            <path d="M0.503,-0.7L0.081,-0.7L0.075,-0.694L0.081,-0.521L0.18,-0.497L0.139,-0.45L0.053,-0.275L0.047,-0.005L0.053,0L0.26,0L0.257,-0.117L0.522,-0.117L0.566,0L0.814,0L0.819,-0.005L0.51,-0.696L0.503,-0.7ZM0.375,-0.507L0.459,-0.285L0.271,-0.277L0.375,-0.507Z" style="fill:rgb(19,136,8);fill-rule:nonzero;"/>
        </g>
    </g>
</svg>
