<?xml version="1.0" encoding="UTF-8" standalone="no"?>
<!DOCTYPE svg PUBLIC "-//W3C//DTD SVG 1.1//EN" "http://www.w3.org/Graphics/SVG/1.1/DTD/svg11.dtd">
<svg width="100%" height="100%" viewBox="0 0 579 87" version="1.1" xmlns="http://www.w3.org/2000/svg" xmlns:xlink="http://www.w3.org/1999/xlink" xml:space="preserve" xmlns:serif="http://www.serif.com/" style="fill-rule:evenodd;clip-rule:evenodd;stroke-linejoin:round;stroke-miterlimit:2;">
    <g transform="matrix(1,0,0,1,-92.7652,-639.862)">
        <g transform="matrix(62.5,0,0,62.5,114,705)">
            <path d="M1.073,-0.7L0.665,-0.7L0.665,-0.562L0.755,-0.551L0.63,-0.269L0.437,-0.7L0.029,-0.7L0.029,-0.548L0.211,-0.527L0.148,-0.465L0.137,0L0.341,0L0.331,-0.494L0.523,-0.063L0.705,-0.063L0.896,-0.494L0.885,0L1.09,0L1.073,-0.7Z" style="fill:rgb(255,153,51);fill-rule:nonzero;"/>
        </g>
        <g transform="matrix(62.5,0,0,62.5,185.777,705)">
            <path d="M0.995,0L0.636,-0.7L0.122,-0.7L0.122,-0.548L0.351,-0.525L0.252,-0.474L0.134,-0.257L0.127,0L0.332,0L0.329,-0.131L0.7,-0.131L0.76,0L0.995,0ZM0.499,-0.572L0.633,-0.276L0.337,-0.276L0.499,-0.572Z" style="fill:rgb(255,153,51);fill-rule:nonzero;"/>
        </g>
        <g transform="matrix(62.5,0,0,62.5,245.5,705)">
            <path d="M0,-0.7L0,-0.548L0.222,-0.527L0.159,-0.465L0.147,0L0.502,0L0.803,-0.214L0.795,-0.597L0.628,-0.7L0,-0.7ZM0.339,-0.527L0.617,-0.527L0.611,-0.292L0.349,-0.139L0.339,-0.527Z" style="fill:rgb(255,153,51);fill-rule:nonzero;"/>
        </g>
        <g transform="matrix(62.5,0,0,62.5,298.753,705)">
            <path d="M0.157,0L0.717,0L0.713,-0.166L0.357,-0.166L0.354,-0.289L0.659,-0.289L0.656,-0.42L0.351,-0.42L0.349,-0.534L0.705,-0.534L0.701,-0.7L0.049,-0.7L0.049,-0.548L0.231,-0.527L0.167,-0.465L0.157,0Z" style="fill:rgb(255,153,51);fill-rule:nonzero;"/>
        </g>
        <g transform="matrix(62.5,0,0,62.5,369.524,705)">
            <path d="M0.676,-0.699L0.531,-0.802L0.376,-0.833L0.356,-0.751L0.479,-0.726L0.609,-0.644L0.685,-0.514L0.705,-0.381L0.688,-0.239L0.607,-0.102L0.481,-0.024L0.302,0.004L0.144,-0.017L0.012,-0.087L-0.066,-0.199L-0.094,-0.329L-0.074,-0.463L0.002,-0.597L0.108,-0.675L0.106,-0.625L0.178,-0.595L0.248,-0.621L0.275,-0.681L0.25,-0.745L0.178,-0.771L0.076,-0.743L-0.061,-0.653L-0.155,-0.499L-0.186,-0.331L-0.15,-0.158L-0.044,-0.017L0.082,0.06L0.302,0.099L0.519,0.063L0.68,-0.042L0.771,-0.203L0.797,-0.381L0.771,-0.547L0.676,-0.699ZM0.039,-0.174L0.122,-0.174L0.19,-0.482L0.19,-0.53L0.108,-0.53L0.039,-0.222L0.039,-0.174ZM0.3,-0.174L0.354,-0.422L0.419,-0.174L0.518,-0.174L0.587,-0.482L0.587,-0.53L0.504,-0.53L0.45,-0.279L0.384,-0.53L0.286,-0.53L0.217,-0.222L0.217,-0.174L0.3,-0.174Z" style="fill:rgb(0,0,128);fill-rule:nonzero;"/>
        </g>
        <g transform="matrix(62.5,0,0,62.5,424.425,705)">
            <path d="M0.413,-0.7L0.09,-0.7L0.09,-0.548L0.3,-0.527L0.236,-0.465L0.225,0L0.43,0L0.413,-0.7Z" style="fill:rgb(19,136,8);fill-rule:nonzero;"/>
        </g>
        <g transform="matrix(62.5,0,0,62.5,454.332,705)">
            <path d="M0.879,-0.7L0.623,-0.7L0.623,-0.562L0.766,-0.534L0.703,-0.472L0.7,-0.281L0.359,-0.7L0.063,-0.7L0.063,-0.548L0.246,-0.527L0.182,-0.465L0.171,0L0.375,0L0.366,-0.431L0.691,0L0.896,0L0.879,-0.7Z" style="fill:rgb(19,136,8);fill-rule:nonzero;"/>
        </g>
        <g transform="matrix(62.5,0,0,62.5,513.384,705)">
            <path d="M0.054,-0.7L0.054,-0.548L0.236,-0.527L0.173,-0.465L0.162,0L0.517,0L0.818,-0.214L0.81,-0.596L0.642,-0.7L0.054,-0.7ZM0.354,-0.527L0.631,-0.527L0.625,-0.292L0.363,-0.139L0.354,-0.527Z" style="fill:rgb(19,136,8);fill-rule:nonzero;"/>
        </g>
        <g transform="matrix(62.5,0,0,62.5,567.552,705)">
            <path d="M0.323,-0.7L0.049,-0.7L0.049,-0.543L0.21,-0.527L0.146,-0.465L0.135,0L0.34,0L0.323,-0.7Z" style="fill:rgb(19,136,8);fill-rule:nonzero;"/>
        </g>
        <g transform="matrix(62.5,0,0,62.5,591.844,705)">
            <path d="M0.995,0L0.636,-0.7L0.122,-0.7L0.122,-0.548L0.351,-0.525L0.252,-0.474L0.134,-0.257L0.127,0L0.332,0L0.329,-0.131L0.7,-0.131L0.76,0L0.995,0ZM0.499,-0.572L0.633,-0.276L0.337,-0.276L0.499,-0.572Z" style="fill:rgb(19,136,8);fill-rule:nonzero;"/>
        </g>
    </g>
</svg>
