<?xml version="1.0" encoding="UTF-8" standalone="no"?>
<!DOCTYPE svg PUBLIC "-//W3C//DTD SVG 1.1//EN" "http://www.w3.org/Graphics/SVG/1.1/DTD/svg11.dtd">
<svg width="100%" height="100%" viewBox="0 0 1624 214" version="1.1" xmlns="http://www.w3.org/2000/svg" xmlns:xlink="http://www.w3.org/1999/xlink" xml:space="preserve" xmlns:serif="http://www.serif.com/" style="fill-rule:evenodd;clip-rule:evenodd;stroke-linejoin:round;stroke-miterlimit:2;">
    <g transform="matrix(1,0,0,1,-56.0982,-521.262)">
        <g transform="matrix(208.333,0,0,208.333,114,705)">
            <path d="M0.896,-0.7L0.526,-0.7L0.521,-0.694L0.526,-0.534L0.568,-0.523L0.506,-0.362L0.368,-0.7L0.013,-0.7L0.007,-0.694L0.013,-0.521L0.1,-0.499L0.087,-0.45L0.076,-0.005L0.082,0L0.28,0L0.27,-0.437L0.398,-0.095L0.404,-0.091L0.576,-0.091L0.582,-0.095L0.71,-0.436L0.701,0L0.913,0L0.918,-0.005L0.902,-0.694L0.896,-0.7Z" style="fill-rule:nonzero;"/>
        </g>
        <g transform="matrix(208.333,0,0,208.333,320.095,705)">
            <path d="M0.503,-0.7L0.081,-0.7L0.075,-0.694L0.081,-0.521L0.18,-0.497L0.139,-0.45L0.053,-0.275L0.047,-0.005L0.053,0L0.26,0L0.257,-0.117L0.522,-0.117L0.566,0L0.814,0L0.819,-0.005L0.51,-0.696L0.503,-0.7ZM0.375,-0.507L0.459,-0.285L0.271,-0.277L0.375,-0.507Z" style="fill-rule:nonzero;"/>
        </g>
        <g transform="matrix(208.333,0,0,208.333,477.973,705)">
            <path d="M0.008,-0.7L0.002,-0.694L0.008,-0.521L0.117,-0.499L0.104,-0.45L0.093,-0.005L0.099,0L0.448,0L0.694,-0.225L0.684,-0.587L0.505,-0.7L0.008,-0.7ZM0.299,-0.512L0.477,-0.517L0.494,-0.504L0.487,-0.309L0.307,-0.159L0.299,-0.512Z" style="fill-rule:nonzero;"/>
        </g>
        <g transform="matrix(208.333,0,0,208.333,631.171,705)">
            <path d="M0.577,0L0.583,-0.005L0.578,-0.171L0.573,-0.177L0.286,-0.17L0.283,-0.282L0.533,-0.282L0.538,-0.287L0.534,-0.431L0.529,-0.437L0.28,-0.427L0.277,-0.53L0.564,-0.525L0.57,-0.53L0.566,-0.694L0.561,-0.7L0.008,-0.7L0.002,-0.694L0.008,-0.521L0.095,-0.499L0.083,-0.45L0.071,-0.005L0.077,0L0.577,0Z" style="fill-rule:nonzero;"/>
        </g>
        <g transform="matrix(208.333,0,0,208.333,817.634,705)">
            <path d="M0.62,-0.697L0.474,-0.799L0.343,-0.824L0.323,-0.744L0.438,-0.719L0.554,-0.633L0.62,-0.511L0.64,-0.383L0.621,-0.249L0.556,-0.123L0.439,-0.035L0.277,-0.004L0.147,-0.024L0.033,-0.088L-0.046,-0.199L-0.071,-0.334L-0.049,-0.462L0.02,-0.575L0.107,-0.635L0.119,-0.611L0.178,-0.584L0.238,-0.608L0.264,-0.667L0.238,-0.731L0.178,-0.753L0.083,-0.728L-0.046,-0.639L-0.135,-0.498L-0.166,-0.334L-0.133,-0.165L-0.035,-0.024L0.111,0.063L0.277,0.09L0.476,0.052L0.623,-0.053L0.709,-0.21L0.735,-0.383L0.709,-0.548L0.62,-0.697ZM0.111,-0.537L0.033,-0.21L0.033,-0.163L0.124,-0.163L0.202,-0.489L0.202,-0.537L0.111,-0.537ZM0.377,-0.163L0.479,-0.163L0.558,-0.489L0.558,-0.537L0.466,-0.537L0.416,-0.325L0.375,-0.537L0.273,-0.537L0.195,-0.21L0.195,-0.163L0.286,-0.163L0.337,-0.375L0.377,-0.163Z" style="fill-rule:nonzero;"/>
        </g>
        <g transform="matrix(208.333,0,0,208.333,983.954,705)">
            <path d="M0.052,-0.7L0.046,-0.694L0.052,-0.521L0.139,-0.498L0.126,-0.45L0.116,-0.005L0.121,0L0.328,0L0.333,-0.005L0.317,-0.694L0.312,-0.7L0.052,-0.7Z" style="fill-rule:nonzero;"/>
        </g>
        <g transform="matrix(208.333,0,0,208.333,1067.78,705)">
            <path d="M0.481,-0.7L0.476,-0.695L0.481,-0.528L0.554,-0.51L0.539,-0.45L0.536,-0.337L0.278,-0.7L0.013,-0.7L0.007,-0.695L0.013,-0.521L0.1,-0.499L0.087,-0.45L0.076,-0.005L0.082,0L0.294,0L0.286,-0.376L0.528,0L0.741,0L0.746,-0.005L0.729,-0.695L0.724,-0.7L0.481,-0.7Z" style="fill-rule:nonzero;"/>
        </g>
        <g transform="matrix(208.333,0,0,208.333,1237.56,705)">
            <path d="M0.013,-0.7L0.007,-0.694L0.013,-0.521L0.1,-0.498L0.087,-0.45L0.077,-0.005L0.082,0L0.431,0L0.677,-0.225L0.667,-0.586L0.488,-0.7L0.013,-0.7ZM0.282,-0.512L0.46,-0.516L0.477,-0.504L0.47,-0.309L0.291,-0.159L0.282,-0.512Z" style="fill-rule:nonzero;"/>
        </g>
        <g transform="matrix(208.333,0,0,208.333,1387.3,705)">
            <path d="M0.008,-0.7L0.003,-0.694L0.008,-0.521L0.095,-0.498L0.083,-0.45L0.072,-0.005L0.077,0L0.284,0L0.29,-0.005L0.273,-0.694L0.268,-0.7L0.008,-0.7Z" style="fill-rule:nonzero;"/>
        </g>
        <g transform="matrix(208.333,0,0,208.333,1461.96,705)">
            <path d="M0.503,-0.7L0.081,-0.7L0.075,-0.694L0.081,-0.521L0.18,-0.497L0.139,-0.45L0.053,-0.275L0.047,-0.005L0.053,0L0.26,0L0.257,-0.117L0.522,-0.117L0.566,0L0.814,0L0.819,-0.005L0.51,-0.696L0.503,-0.7ZM0.375,-0.507L0.459,-0.285L0.271,-0.277L0.375,-0.507Z" style="fill-rule:nonzero;"/>
        </g>
    </g>
</svg>
