<?xml version="1.0" encoding="UTF-8" standalone="no"?>
<!DOCTYPE svg PUBLIC "-//W3C//DTD SVG 1.1//EN" "http://www.w3.org/Graphics/SVG/1.1/DTD/svg11.dtd">
<svg width="100%" height="100%" viewBox="0 0 1132 135" version="1.1" xmlns="http://www.w3.org/2000/svg" xmlns:xlink="http://www.w3.org/1999/xlink" xml:space="preserve" xmlns:serif="http://www.serif.com/" style="fill-rule:evenodd;clip-rule:evenodd;stroke-linejoin:round;stroke-miterlimit:2;">
    <g transform="matrix(1,0,0,1,-96.2918,-590.272)">
        <g transform="matrix(135.417,0,0,135.417,114,705)">
            <path d="M1.103,0.059C1.044,-0.062 1.036,-0.1 1.027,-0.25C1.021,-0.38 1.018,-0.522 1.039,-0.667C1.042,-0.69 1.034,-0.705 0.976,-0.705C0.924,-0.705 0.816,-0.693 0.74,-0.693C0.688,-0.693 0.663,-0.698 0.645,-0.717C0.628,-0.733 0.622,-0.736 0.617,-0.736C0.612,-0.736 0.611,-0.731 0.611,-0.724C0.611,-0.712 0.613,-0.695 0.617,-0.671C0.628,-0.583 0.638,-0.547 0.681,-0.547C0.691,-0.547 0.704,-0.548 0.719,-0.552C0.689,-0.5 0.641,-0.411 0.6,-0.331C0.545,-0.467 0.475,-0.623 0.428,-0.677C0.407,-0.703 0.385,-0.708 0.355,-0.708C0.318,-0.708 0.206,-0.693 0.148,-0.693C0.112,-0.693 0.085,-0.699 0.066,-0.709C0.039,-0.724 0.023,-0.731 0.015,-0.731C0.008,-0.731 0.005,-0.727 0.005,-0.716C0.005,-0.704 0.009,-0.683 0.015,-0.653C0.028,-0.568 0.042,-0.515 0.109,-0.515C0.125,-0.515 0.14,-0.52 0.159,-0.528C0.164,-0.369 0.154,-0.191 0.146,-0.107C0.14,-0.05 0.154,-0.037 0.191,-0.029C0.257,-0.014 0.3,0.015 0.35,0.065C0.369,0.083 0.388,0.074 0.375,0.042C0.357,-0.008 0.346,-0.035 0.338,-0.077C0.32,-0.182 0.318,-0.318 0.326,-0.471C0.37,-0.375 0.422,-0.226 0.473,-0.093C0.478,-0.08 0.486,-0.075 0.512,-0.076C0.544,-0.076 0.57,-0.078 0.59,-0.083C0.603,-0.077 0.617,-0.073 0.63,-0.073C0.663,-0.073 0.683,-0.083 0.709,-0.167C0.735,-0.249 0.783,-0.362 0.838,-0.468C0.836,-0.387 0.836,-0.329 0.831,-0.265C0.826,-0.202 0.822,-0.124 0.824,-0.07C0.826,-0.04 0.837,-0.032 0.879,-0.024C0.966,-0.009 1.027,0.021 1.081,0.075C1.103,0.097 1.116,0.084 1.103,0.059Z" style="fill:rgb(255,153,51);fill-rule:nonzero;"/>
        </g>
        <g transform="matrix(135.417,0,0,135.417,268.261,705)">
            <path d="M0.864,0.017C0.84,-0.031 0.813,-0.095 0.79,-0.156C0.762,-0.226 0.681,-0.371 0.567,-0.636C0.545,-0.686 0.523,-0.705 0.46,-0.707C0.398,-0.709 0.339,-0.704 0.285,-0.697C0.234,-0.69 0.193,-0.686 0.159,-0.686C0.079,-0.686 0.053,-0.729 0.041,-0.729C0.037,-0.729 0.034,-0.724 0.034,-0.713C0.034,-0.697 0.043,-0.626 0.048,-0.606C0.063,-0.539 0.09,-0.512 0.149,-0.512C0.169,-0.512 0.192,-0.515 0.219,-0.521C0.113,-0.402 0.05,-0.258 0.05,-0.13C0.05,-0.075 0.061,-0.037 0.101,-0.019C0.158,0.004 0.24,0.014 0.312,0.061C0.335,0.075 0.349,0.064 0.332,0.041C0.287,-0.021 0.266,-0.065 0.259,-0.114C0.318,-0.126 0.392,-0.129 0.564,-0.131C0.568,-0.118 0.57,-0.106 0.572,-0.095C0.58,-0.046 0.596,-0.03 0.631,-0.028C0.717,-0.024 0.778,-0.002 0.834,0.037C0.857,0.053 0.875,0.041 0.864,0.017ZM0.277,-0.268C0.302,-0.35 0.346,-0.451 0.399,-0.527C0.443,-0.451 0.487,-0.358 0.519,-0.272C0.447,-0.281 0.351,-0.278 0.277,-0.268Z" style="fill:rgb(255,153,51);fill-rule:nonzero;"/>
        </g>
        <g transform="matrix(135.417,0,0,135.417,378.486,705)">
            <path d="M0.65,-0.605C0.624,-0.706 0.582,-0.715 0.386,-0.715C0.198,-0.715 0.052,-0.688 -0.003,-0.715C-0.028,-0.727 -0.045,-0.735 -0.053,-0.735C-0.058,-0.735 -0.061,-0.731 -0.061,-0.725C-0.061,-0.715 -0.054,-0.694 -0.034,-0.661C0.02,-0.55 0.036,-0.509 0.103,-0.509C0.12,-0.509 0.136,-0.512 0.155,-0.516C0.146,-0.416 0.136,-0.272 0.134,-0.197C0.132,-0.134 0.132,-0.091 0.128,-0.061C0.123,-0.022 0.15,-0.006 0.242,-0.006C0.288,-0.006 0.312,0.002 0.326,0.016C0.336,0.026 0.343,0.029 0.354,0.029C0.392,0.029 0.542,-0.058 0.595,-0.101C0.695,-0.18 0.754,-0.278 0.754,-0.411C0.754,-0.515 0.726,-0.582 0.65,-0.605ZM0.328,-0.158C0.333,-0.289 0.335,-0.413 0.325,-0.538C0.333,-0.538 0.342,-0.538 0.351,-0.538C0.425,-0.538 0.49,-0.537 0.544,-0.529C0.555,-0.504 0.562,-0.476 0.562,-0.438C0.562,-0.293 0.473,-0.201 0.328,-0.158Z" style="fill:rgb(255,153,51);fill-rule:nonzero;"/>
        </g>
        <g transform="matrix(135.417,0,0,135.417,487.784,705)">
            <path d="M0.67,0.029C0.648,-0.034 0.63,-0.097 0.624,-0.126C0.617,-0.159 0.597,-0.175 0.502,-0.175C0.434,-0.175 0.365,-0.167 0.318,-0.157C0.314,-0.2 0.312,-0.244 0.309,-0.288C0.454,-0.288 0.541,-0.285 0.587,-0.267C0.613,-0.257 0.618,-0.262 0.611,-0.282C0.607,-0.294 0.607,-0.31 0.606,-0.326C0.606,-0.378 0.605,-0.438 0.478,-0.438C0.427,-0.438 0.356,-0.429 0.304,-0.412C0.304,-0.452 0.303,-0.492 0.304,-0.531C0.341,-0.534 0.381,-0.535 0.419,-0.535C0.511,-0.535 0.594,-0.527 0.628,-0.518C0.65,-0.511 0.661,-0.52 0.654,-0.543C0.641,-0.591 0.631,-0.626 0.623,-0.646C0.603,-0.69 0.574,-0.704 0.504,-0.704C0.429,-0.704 0.301,-0.688 0.223,-0.688C0.11,-0.688 0.071,-0.692 0.024,-0.721C0.005,-0.731 -0.011,-0.729 0.001,-0.704C0.011,-0.681 0.022,-0.654 0.029,-0.605C0.039,-0.534 0.05,-0.506 0.114,-0.506C0.119,-0.506 0.124,-0.506 0.128,-0.507C0.123,-0.433 0.108,-0.298 0.108,-0.233C0.108,-0.212 0.109,-0.188 0.117,-0.151C0.109,-0.122 0.105,-0.099 0.105,-0.072C0.105,-0.032 0.12,0.003 0.251,0.003C0.312,0.003 0.44,-0.001 0.487,-0.001C0.565,-0.001 0.603,0.012 0.647,0.047C0.667,0.061 0.679,0.056 0.67,0.029Z" style="fill:rgb(255,153,51);fill-rule:nonzero;"/>
        </g>
        <g transform="matrix(135.417,0,0,135.417,628.557,705)">
            <path d="M0.448,-0.784C0.378,-0.793 0.372,-0.827 0.36,-0.827C0.346,-0.827 0.344,-0.807 0.342,-0.774C0.341,-0.737 0.367,-0.716 0.461,-0.691C0.562,-0.663 0.665,-0.593 0.665,-0.388C0.665,-0.12 0.486,-0.013 0.279,-0.013C0.055,-0.013 -0.08,-0.142 -0.08,-0.335C-0.08,-0.479 -0.005,-0.605 0.109,-0.657C0.091,-0.615 0.111,-0.574 0.172,-0.574C0.226,-0.574 0.273,-0.608 0.273,-0.667C0.273,-0.714 0.243,-0.758 0.169,-0.758C0.023,-0.758 -0.171,-0.593 -0.171,-0.334C-0.171,-0.23 -0.14,-0.135 -0.075,-0.06C0.009,0.037 0.139,0.089 0.289,0.089C0.57,0.089 0.757,-0.087 0.757,-0.389C0.757,-0.665 0.587,-0.762 0.448,-0.784ZM0.177,-0.187C0.195,-0.18 0.217,-0.173 0.238,-0.173C0.277,-0.173 0.297,-0.197 0.311,-0.238C0.323,-0.275 0.334,-0.341 0.338,-0.412C0.354,-0.305 0.38,-0.228 0.402,-0.174C0.409,-0.17 0.42,-0.169 0.43,-0.169C0.46,-0.169 0.492,-0.18 0.499,-0.212C0.51,-0.279 0.522,-0.43 0.599,-0.517C0.59,-0.532 0.571,-0.543 0.547,-0.543C0.5,-0.543 0.467,-0.5 0.456,-0.449C0.444,-0.403 0.439,-0.342 0.439,-0.265C0.411,-0.373 0.396,-0.482 0.361,-0.526C0.347,-0.529 0.336,-0.53 0.325,-0.53C0.288,-0.53 0.27,-0.515 0.263,-0.473C0.248,-0.367 0.225,-0.261 0.177,-0.187ZM0.092,-0.477C0.063,-0.374 0.04,-0.252 -0.002,-0.211C0.009,-0.186 0.027,-0.176 0.048,-0.176C0.078,-0.176 0.105,-0.194 0.124,-0.228C0.161,-0.292 0.192,-0.451 0.2,-0.521C0.11,-0.521 0.103,-0.516 0.092,-0.477Z" style="fill:rgb(0,0,128);fill-rule:nonzero;"/>
        </g>
        <g transform="matrix(135.417,0,0,135.417,738.385,705)">
            <path d="M0.468,0.031C0.444,-0.033 0.436,-0.076 0.437,-0.162C0.438,-0.326 0.421,-0.489 0.43,-0.661C0.431,-0.69 0.424,-0.706 0.399,-0.704C0.321,-0.698 0.247,-0.694 0.203,-0.694C0.175,-0.694 0.16,-0.697 0.149,-0.704C0.132,-0.716 0.113,-0.747 0.105,-0.747C0.099,-0.747 0.099,-0.73 0.107,-0.674C0.109,-0.657 0.11,-0.642 0.111,-0.625C0.115,-0.563 0.119,-0.51 0.19,-0.51C0.206,-0.51 0.225,-0.513 0.249,-0.519C0.249,-0.5 0.249,-0.48 0.249,-0.461C0.249,-0.284 0.227,-0.083 0.227,-0.06C0.227,-0.026 0.239,-0.018 0.27,-0.015C0.338,-0.008 0.389,0.011 0.447,0.05C0.465,0.062 0.476,0.052 0.468,0.031Z" style="fill:rgb(19,136,8);fill-rule:nonzero;"/>
        </g>
        <g transform="matrix(135.417,0,0,135.417,808.473,705)">
            <path d="M0.792,-0.24C0.792,-0.377 0.773,-0.512 0.791,-0.654C0.795,-0.686 0.784,-0.703 0.746,-0.702C0.697,-0.701 0.635,-0.696 0.589,-0.696C0.506,-0.696 0.495,-0.727 0.48,-0.727C0.476,-0.727 0.474,-0.724 0.474,-0.714C0.474,-0.652 0.517,-0.537 0.564,-0.537C0.575,-0.537 0.587,-0.54 0.6,-0.544C0.603,-0.464 0.603,-0.388 0.603,-0.28C0.548,-0.379 0.458,-0.482 0.413,-0.548C0.333,-0.663 0.32,-0.69 0.244,-0.696C0.197,-0.699 0.11,-0.69 0.062,-0.7C0.024,-0.706 0.02,-0.744 0.009,-0.744C-0.003,-0.744 -0.001,-0.719 0.003,-0.66C0.008,-0.572 0.015,-0.523 0.071,-0.523C0.086,-0.523 0.104,-0.527 0.125,-0.534C0.124,-0.38 0.111,-0.226 0.104,-0.106C0.102,-0.054 0.11,-0.032 0.134,-0.021C0.159,-0.01 0.216,-0.005 0.255,-0.001C0.283,0.001 0.309,0.013 0.332,0.044C0.349,0.066 0.364,0.056 0.354,0.031C0.315,-0.066 0.305,-0.127 0.305,-0.251C0.305,-0.301 0.305,-0.351 0.302,-0.406C0.378,-0.304 0.467,-0.177 0.518,-0.104C0.57,-0.028 0.605,-0.01 0.703,0.001C0.742,0.008 0.762,0.018 0.789,0.051C0.799,0.061 0.813,0.068 0.823,0.068C0.834,0.068 0.843,0.061 0.843,0.041C0.843,0 0.792,-0.019 0.792,-0.24Z" style="fill:rgb(19,136,8);fill-rule:nonzero;"/>
        </g>
        <g transform="matrix(135.417,0,0,135.417,926.963,705)">
            <path d="M0.666,-0.6C0.642,-0.692 0.564,-0.709 0.416,-0.709C0.262,-0.709 0.18,-0.687 0.104,-0.687C0.083,-0.687 0.068,-0.689 0.058,-0.695C0.033,-0.709 0.031,-0.726 0.02,-0.726C0.014,-0.726 0.01,-0.721 0.01,-0.709C0.01,-0.696 0.017,-0.642 0.023,-0.613C0.039,-0.538 0.041,-0.484 0.087,-0.484C0.105,-0.484 0.118,-0.488 0.132,-0.493C0.127,-0.435 0.125,-0.375 0.127,-0.317C0.135,-0.143 0.094,-0.061 0.094,-0.044C0.094,-0.022 0.116,-0.003 0.168,-0.003C0.184,-0.003 0.204,-0.006 0.225,-0.011C0.238,-0.015 0.248,-0.017 0.257,-0.017C0.277,-0.017 0.288,-0.008 0.29,0.015C0.292,0.038 0.303,0.048 0.322,0.048C0.373,0.048 0.539,-0.043 0.603,-0.094C0.698,-0.17 0.748,-0.266 0.748,-0.424C0.748,-0.495 0.731,-0.572 0.666,-0.6ZM0.324,-0.169C0.326,-0.303 0.322,-0.419 0.312,-0.529C0.333,-0.53 0.357,-0.53 0.384,-0.53C0.463,-0.53 0.511,-0.523 0.543,-0.515C0.551,-0.492 0.556,-0.461 0.556,-0.42C0.556,-0.274 0.432,-0.214 0.324,-0.169Z" style="fill:rgb(19,136,8);fill-rule:nonzero;"/>
        </g>
        <g transform="matrix(135.417,0,0,135.417,1033.35,705)">
            <path d="M0.35,0.059C0.326,-0.051 0.322,-0.179 0.323,-0.254C0.326,-0.37 0.313,-0.508 0.324,-0.654C0.327,-0.692 0.314,-0.708 0.283,-0.703C0.232,-0.696 0.183,-0.691 0.142,-0.691C0.097,-0.691 0.062,-0.696 0.043,-0.711C0.029,-0.726 0.016,-0.735 0.01,-0.735C0.004,-0.735 0.001,-0.73 0.001,-0.723C0.001,-0.624 0.025,-0.505 0.106,-0.505C0.117,-0.505 0.128,-0.507 0.14,-0.511C0.132,-0.382 0.124,-0.226 0.111,-0.099C0.105,-0.045 0.115,-0.03 0.152,-0.022C0.21,-0.009 0.28,0.018 0.322,0.064C0.342,0.086 0.348,0.091 0.352,0.091C0.354,0.091 0.354,0.089 0.354,0.085C0.354,0.081 0.353,0.074 0.35,0.059Z" style="fill:rgb(19,136,8);fill-rule:nonzero;"/>
        </g>
        <g transform="matrix(135.417,0,0,135.417,1088.03,705)">
            <path d="M0.926,0.054C0.849,-0.083 0.81,-0.168 0.773,-0.255C0.719,-0.386 0.661,-0.494 0.611,-0.562C0.618,-0.585 0.622,-0.609 0.622,-0.627C0.622,-0.688 0.595,-0.711 0.475,-0.711C0.391,-0.711 0.288,-0.696 0.201,-0.696C0.089,-0.696 0.06,-0.746 0.039,-0.746C0.032,-0.746 0.029,-0.74 0.029,-0.73C0.029,-0.713 0.038,-0.666 0.052,-0.619C0.078,-0.529 0.095,-0.5 0.125,-0.5C0.15,-0.5 0.189,-0.514 0.231,-0.523C0.128,-0.387 0.072,-0.25 0.072,-0.12C0.072,-0.039 0.102,-0.017 0.145,-0.007C0.187,0.003 0.24,0.02 0.315,0.066C0.338,0.08 0.344,0.068 0.332,0.046C0.302,-0.006 0.286,-0.056 0.279,-0.102C0.383,-0.129 0.517,-0.133 0.603,-0.126C0.61,-0.103 0.616,-0.082 0.62,-0.064C0.628,-0.027 0.636,-0.018 0.676,-0.011C0.765,0.002 0.833,0.021 0.905,0.07C0.928,0.086 0.938,0.075 0.926,0.054ZM0.296,-0.259C0.324,-0.344 0.373,-0.45 0.419,-0.533C0.459,-0.465 0.505,-0.372 0.543,-0.283C0.44,-0.283 0.359,-0.265 0.296,-0.259Z" style="fill:rgb(19,136,8);fill-rule:nonzero;"/>
        </g>
    </g>
</svg>
